<?xml version="1.0" encoding="UTF-8"?>
<svg width="32px" height="32px" viewBox="0 0 32 32" version="1.1" xmlns="http://www.w3.org/2000/svg">
    <title>Vite Logo</title>
    <g stroke="none" stroke-width="1" fill="none" fill-rule="evenodd">
        <path d="M29.8836 6.146L16.7418 29.487C16.3494 30.176 15.3466 30.176 14.9542 29.487L1.81243 6.146C1.38426 5.398 1.9135 4.466 2.75814 4.466H28.9377C29.7823 4.466 30.3116 5.398 29.8836 6.146Z" fill="currentColor"/>
        <path d="M23.2365 4.466L16.1934 17.0742C15.8009 17.7632 14.7982 17.7632 14.4058 17.0742L7.36267 4.466H2.75814C1.9135 4.466 1.38426 5.398 1.81243 6.146L14.9542 29.487C15.3466 30.176 16.3494 30.176 16.7418 29.487L29.8836 6.146C30.3116 5.398 29.7823 4.466 28.9377 4.466H23.2365Z" fill="#646CFF"/>
    </g>
</svg>
